[b][color=black]The.Vampire.Diaries.S03E18.HDTV [H264] [MPEG-4]-Sebastian[Ub3r]

Format                           : MPEG-4
Format profile                   : Base Media / Version 2
Codec ID                         : mp42
File size                        : 155 MiB
Duration                         : 40mn 42s
Overall bit rate                 : 534 Kbps
Encoded date                     : UTC 2012-09-21 18:00:42
Tagged date                      : UTC 2012-09-21 18:08:50

Video
ID                               : 1
Format                           : AVC
Format/Info                      : Advanced Video Codec
Format profile                   : Main@L3.0
Format settings, CABAC           : Yes
Format settings, ReFrames        : 4 frames
Format settings, GOP             : M=1, N=54
Codec ID                         : avc1
Codec ID/Info                    : Advanced Video Coding
Duration                         : 40mn 42s
Bit rate mode                    : Variable
Bit rate                         : 401 Kbps
Width                            : 624 pixels
Height                           : 352 pixels
Display aspect ratio             : 16:9
Frame rate mode                  : Variable
Frame rate                       : 23.976 fps
Minimum frame rate               : 23.974 fps
Maximum frame rate               : 23.981 fps
Color space                      : YUV
Chroma subsampling               : 4:2:0
Bit depth                        : 8 bits
Scan type                        : Progressive
Bits/(Pixel*Frame)               : 0.076
Stream size                      : 117 MiB (75%)
Writing library                  : x264 core 120
Encoded date                     : UTC 2012-09-21 18:00:42
Tagged date                      : UTC 2012-09-21 18:08:49

Audio
ID                               : 2
Format                           : AAC
Format/Info                      : Advanced Audio Codec
Format profile                   : LC
Codec ID                         : 40
Duration                         : 40mn 42s
Bit rate mode                    : Variable
Bit rate                         : 128 Kbps
Maximum bit rate                 : 172 Kbps
Channel(s)                       : 2 channels
Channel positions                : Front: L R
Sampling rate                    : 48.0 KHz
Compression mode                 : Lossy
Stream size                      : 37.3 MiB (24%)
Encoded date                     : UTC 2012-09-21 18:00:42
Tagged date                      : UTC 2012-09-21 18:08:48

Snapshots[/color][/b]
[img]http://imageshack.us/a/img59/5449/thevampirediariess03e18.jpg[/img]

[img]http://kastatic.com/i2/users/133df62bbf28e62494bb17fe11078f1a.gif[/img][img]http://kastatic.com/i2/users/133df62bbf28e62494bb17fe11078f1a.gif[/img]